# xmcd
#
# Track frame offsets: 
#        150
#        13269
#        25646
#        39746
#        56211
#        70299
#        75174
#        89551
#        99487
#        114893
#        130755
#        141231
#        146194
#
# Disc length: 3058 seconds
#
# Revision: 0
# Processed by: cddbd v1.5.2PL0 Copyright (c) Steve Scherf et al.
# Submitted via: ExactAudioCopy v0.99pb5
#
DISCID=b10bf00d
DTITLE=Ross Neilsen - Where I'm From
DYEAR=2006
DGENRE=Blues
TTITLE0=Something's Gonna Change
TTITLE1=Commit a Crime
TTITLE2=Badlands
TTITLE3=New Stagger Lee Blues
TTITLE4=Source of Light
TTITLE5=Heart Beat
TTITLE6=Mailman
TTITLE7=Come Undone
TTITLE8=Walk On By
TTITLE9=Let It Ride
TTITLE10=Tea Blues
TTITLE11=Colin Out
TTITLE12=Goin' Somewhere
EXTD=
EXTT0=
EXTT1=
EXTT2=
EXTT3=
EXTT4=
EXTT5=
EXTT6=
EXTT7=
EXTT8=
EXTT9=
EXTT10=
EXTT11=
EXTT12=
PLAYORDER=
